HIERARCHY
ROOT Hips
{
     OFFSET -73.12110 99.63360 56.13470
     CHANNELS 6 Xposition Yposition Zposition Zrotation Xrotation Yrotation
     JOINT Spine
     {
          OFFSET 0.00000 11.89050 0.00000
          CHANNELS 3 Zrotation Xrotation Yrotation
          JOINT Spine1
          {
               OFFSET 0.00000 25.65740 0.12766
               CHANNELS 3 Zrotation Xrotation Yrotation
               JOINT HEad
               {
                    OFFSET 0.00000 8.73416 0.01134
                    CHANNELS 3 Zrotation Xrotation Yrotation
                    End Site
                    {
                         OFFSET -0.29000 12.77420 2.51395
                    }
               }
               JOINT LeftShoulder1
               {
                    OFFSET 8.99000 -0.36225 -0.22000
                    CHANNELS 3 Zrotation Xrotation Yrotation
                    JOINT LeftArm
                    {
                         OFFSET 10.28270 -0.00338 0.32212
                         CHANNELS 3 Zrotation Xrotation Yrotation
                         JOINT LeftForeArm
                         {
                              OFFSET 32.76690 0.09914 -1.42434
                              CHANNELS 3 Zrotation Xrotation Yrotation
                              JOINT LeftHand
                              {
                                   OFFSET 27.56430 0.08536 1.02216
                                   CHANNELS 3 Zrotation Xrotation Yrotation
                                   End Site
                                   {
                                        OFFSET 16.74430 -0.60000 1.50291
                                   }
                              }
                         }
                    }
               }
               JOINT RightShoulder
               {
                    OFFSET -8.99000 -0.36225 -0.22000
                    CHANNELS 3 Zrotation Xrotation Yrotation
                    JOINT RightArm
                    {
                         OFFSET -10.28270 -0.00338 0.32212
                         CHANNELS 3 Zrotation Xrotation Yrotation
                         JOINT RightForeArm
                         {
                              OFFSET -32.89710 0.09914 -1.42434
                              CHANNELS 3 Zrotation Xrotation Yrotation
                              JOINT RightHand
                              {
                                   OFFSET -27.49210 0.08536 1.02216
                                   CHANNELS 3 Zrotation Xrotation Yrotation
                                   End Site
                                   {
                                        OFFSET -16.63120 -0.60000 1.50291
                                   }
                              }
                         }
                    }
               }
          }
     }
     JOINT LeftUpLeg
     {
          OFFSET 8.94580 -8.66707 0.10165
          CHANNELS 3 Zrotation Xrotation Yrotation
          JOINT LeftLeg
          {
               OFFSET 0.00000 -44.42270 1.37270
               CHANNELS 3 Zrotation Xrotation Yrotation
               JOINT LeftFoot
               {
                    OFFSET -0.25355 -42.09240 -1.46059
                    CHANNELS 3 Zrotation Xrotation Yrotation
                    JOINT LeftToes
                    {
                         OFFSET -0.04000 -4.41509 8.49910
                         CHANNELS 3 Zrotation Xrotation Yrotation
                         End Site
                         {
                              OFFSET 0.08000 -0.04745 9.77979
                         }
                    }
               }
          }
     }
     JOINT RightUpLeg
     {
          OFFSET -8.94580 -8.66707 0.10165
          CHANNELS 3 Zrotation Xrotation Yrotation
          JOINT RightLeg
          {
               OFFSET -0.00000 -44.42270 1.37270
               CHANNELS 3 Zrotation Xrotation Yrotation
               JOINT RightFoot
               {
                    OFFSET 0.25355 -42.09240 -1.46059
                    CHANNELS 3 Zrotation Xrotation Yrotation
                    JOINT RightToes
                    {
                         OFFSET 0.04000 -4.41509 8.49910
                         CHANNELS 3 Zrotation Xrotation Yrotation
                         End Site
                         {
                              OFFSET -0.08000 -0.13745 9.77979
                         }
                    }
               }
          }
     }
}
MOTION
Frames: 10
Frame Time: 0.01667
-73.26210 99.62530 56.00770 1.29886 -4.09214 -43.77570 1.62075 2.63630 1.86662 4.17755 5.35264 3.87076 -11.16250 0.93876 18.37650 -0.00000 -0.00000 0.00000 -93.04340 -57.42120 -94.04610 -32.52940 20.17730 -66.73010 12.40480 7.34080 -20.56040 -4.39536 0.14545 -0.58088 61.41610 4.96327 97.57830 34.88640 -7.05353 47.91420 -7.30340 7.92961 29.40720 5.19872 -12.47670 -13.33310 -2.41997 17.47220 5.91494 -0.30897 -4.77190 0.02104 -2.55268 3.36230 7.75369 -15.35260 13.00090 -18.21230 2.11991 17.85600 -10.47450 17.37800 -10.93020 0.31245 0.33053 -8.70158 6.86399 
-73.27740 99.62030 55.99570 1.28113 -4.05582 -43.77560 1.61207 2.60885 1.89814 4.20517 5.29467 3.92573 -11.11920 1.02873 18.35590 -0.00000 -0.00000 0.00000 -92.92050 -57.37630 -93.91890 -32.48700 20.18340 -66.76700 12.39900 7.33972 -20.58250 -4.47510 0.14455 -0.59330 61.46770 4.93065 97.36100 34.89450 -6.96053 48.05290 -7.48670 7.86288 29.58700 5.16936 -12.44640 -13.22870 -2.19969 17.46230 5.56675 -0.29471 -4.87766 0.02105 -2.67252 3.49938 8.08976 -15.33090 13.03750 -18.03110 2.26328 17.78140 -10.66990 17.35090 -10.94760 0.31424 0.34253 -8.73211 6.74998 
-73.27650 99.61250 55.98920 1.31513 -4.00194 -43.78970 1.60977 2.57517 1.91987 4.22418 5.22414 3.96244 -11.09570 1.11753 18.37960 -0.00000 -0.00000 0.00000 -92.87450 -57.36500 -93.83570 -32.47450 20.20380 -66.82450 12.38310 7.34156 -20.59840 -4.57125 0.14361 -0.57404 61.48470 4.85083 97.18310 34.98490 -6.93906 48.27670 -7.59228 7.82267 29.71320 5.14578 -12.47470 -13.21170 -2.08171 17.44570 5.33876 -0.32160 -5.04126 0.02224 -2.81470 3.71853 8.41800 -15.33480 12.97900 -17.94290 2.32516 17.76540 -10.73180 17.35130 -10.95240 0.31497 0.36191 -8.81353 6.62799 
-73.23950 99.60220 55.99270 1.37021 -3.92185 -43.83010 1.63117 2.54593 1.93147 4.26588 5.16384 3.98080 -11.09070 1.19984 18.44060 -0.00000 -0.00000 0.00000 -93.04190 -57.40050 -93.88650 -32.54200 20.31510 -66.88600 12.39140 7.34012 -20.59470 -4.64264 0.14293 -0.54814 61.48240 4.73861 97.06940 35.17350 -6.99016 48.56700 -7.54577 7.83630 29.72150 5.15441 -12.54300 -13.29960 -2.08699 17.40390 5.28328 -0.25440 -5.17253 0.02120 -2.91284 3.83298 8.68402 -15.35010 12.81940 -17.94850 2.30316 17.82940 -10.65740 17.38480 -10.94590 0.31499 0.38025 -8.90625 6.54180 
-73.13810 99.59130 56.01280 1.38094 -3.82544 -43.89900 1.69329 2.54581 1.93202 4.38137 5.16387 3.97754 -11.09540 1.26302 18.51100 -0.00000 -0.00000 0.00000 -93.56010 -57.48170 -94.16980 -32.75320 20.57630 -66.91040 12.45330 7.32952 -20.56560 -4.67859 0.14256 -0.54098 61.41940 4.59429 97.05200 35.45470 -7.09249 48.91030 -7.40131 7.88692 29.61620 5.19278 -12.60310 -13.50400 -2.16348 17.34710 5.40589 -0.02036 -5.21022 0.01631 -2.92156 3.69992 8.87461 -15.35780 12.60640 -18.03370 2.21630 17.96710 -10.46490 17.44250 -10.91420 0.31197 0.39232 -8.97237 6.49423 
-72.93800 99.58120 56.05020 1.26904 -3.73412 -43.99730 1.80533 2.60392 1.91506 4.62025 5.28119 3.93570 -11.09800 1.28577 18.57770 -0.00000 -0.00000 0.00000 -94.44880 -57.60930 -94.72040 -33.13190 20.96840 -66.85280 12.57840 7.30629 -20.52450 -4.68622 0.14251 -0.52639 61.21270 4.37451 97.17170 35.85480 -7.28923 49.26170 -7.26183 7.93554 29.51410 5.25349 -12.61230 -13.82590 -2.24915 17.32200 5.69516 0.36150 -5.15022 0.00756 -2.83567 3.29242 9.00525 -15.34450 12.41390 -18.15170 2.11052 18.15070 -10.19940 17.50200 -10.83010 0.30111 0.39851 -9.00569 6.46837 
-72.60480 99.57200 56.09630 0.97619 -3.66070 -44.13150 1.96758 2.73480 1.87108 5.01260 5.54179 3.83027 -11.08850 1.24272 18.65990 -0.00000 -0.00000 0.00000 -95.55040 -57.78280 -95.44780 -33.63040 21.39410 -66.69460 12.74140 7.27260 -20.50320 -4.65935 0.14318 -0.39344 60.82190 3.99469 97.41170 36.40300 -7.64521 49.55280 -7.18934 7.95413 29.56850 5.34368 -12.57150 -14.22940 -2.31695 17.40290 6.12001 0.81446 -5.03795 -0.00389 -2.68533 2.70488 9.09000 -15.30680 12.28820 -18.23480 2.04498 18.35710 -9.90629 17.52090 -10.66530 0.27696 0.40735 -9.04854 6.42125 
-72.11260 99.56270 56.13800 0.48692 -3.60137 -44.32020 2.17310 2.93361 1.79850 5.56244 5.93245 3.65233 -11.07680 1.09525 18.78320 -0.00000 -0.00000 0.00000 -96.61320 -57.98530 -96.17520 -34.16240 21.74110 -66.45410 12.88670 7.23803 -20.52580 -4.58009 0.14551 -0.00569 60.32380 3.39537 97.65610 37.02950 -8.10347 49.74310 -7.20923 7.93276 29.81890 5.48053 -12.53020 -14.64250 -2.38184 17.66960 6.64057 1.23298 -4.94352 -0.01511 -2.51843 2.10917 9.11891 -15.24820 12.21750 -18.24570 2.04469 18.58330 -9.57121 17.43210 -10.39300 0.23397 0.43693 -9.19541 6.26705 
-71.44830 99.55290 56.16970 -0.15194 -3.54891 -44.58960 2.40805 3.18458 1.71059 6.23491 6.42011 3.42712 -11.09730 0.77196 18.93490 -0.00000 -0.00000 0.00000 -97.42320 -58.18090 -96.75070 -34.63980 21.95580 -66.18140 12.96950 7.21316 -20.58450 -4.42975 0.15111 0.67141 59.86060 2.61198 97.77080 37.58090 -8.50397 49.84230 -7.32040 7.87771 30.15670 5.65251 -12.55390 -14.98410 -2.47505 18.15340 7.21625 1.53839 -4.90545 -0.02313 -2.37776 1.66008 9.07750 -15.19640 12.13070 -18.21680 2.07252 18.84800 -9.10345 17.15330 -9.97647 0.16613 0.51172 -9.59190 5.90110 
-70.61090 99.54330 56.19990 -0.82834 -3.50569 -44.95300 2.65432 3.46669 1.62716 6.95348 6.96493 3.20108 -11.16960 0.19022 19.04400 -0.00000 -0.00000 0.00000 -97.86540 -58.32080 -97.11060 -34.98910 22.05480 -65.94280 12.99130 7.20135 -20.64700 -4.21529 0.16132 1.50664 59.54410 1.78185 97.70690 37.96680 -8.76845 49.90290 -7.46010 7.81637 30.44210 5.78384 -12.69210 -15.19700 -2.60136 18.79760 7.79260 1.71512 -4.90323 -0.02744 -2.29247 1.43907 8.98576 -15.21960 11.91780 -18.25420 2.04353 19.18620 -8.38314 16.62030 -9.37646 0.07020 0.64805 -10.37830 5.25975 
